<svg xmlns="http://www.w3.org/2000/svg" version="1.1" xmlns:xlink="http://www.w3.org/1999/xlink" xmlns:svgjs="http://svgjs.dev/svgjs" width="1000" height="1000" viewBox="0 0 1000 1000"><rect width="1000" height="1000" fill="#ffffff"></rect><g transform="matrix(0.7,0,0,0.7,149.57575757575756,282.1265587044535)"><svg viewBox="0 0 396 247" data-background-color="#ffffff" preserveAspectRatio="xMidYMid meet" height="623" width="1000" xmlns="http://www.w3.org/2000/svg" xmlns:xlink="http://www.w3.org/1999/xlink"><g id="tight-bounds" transform="matrix(1,0,0,1,0.2400000000000091,-0.09999999999999432)"><svg viewBox="0 0 395.52 247.2" height="247.2" width="395.52"><g><svg></svg></g><g><svg viewBox="0 0 395.52 247.2" height="247.2" width="395.52"><g transform="matrix(1,0,0,1,75.54432,80.02421916009234)"><svg viewBox="0 0 244.43135999999998 87.15156167981529" height="87.15156167981529" width="244.43135999999998"><g><svg viewBox="0 0 244.43135999999998 87.15156167981529" height="87.15156167981529" width="244.43135999999998"><g><svg viewBox="0 0 347.94919213810994 124.06065850170121" height="87.15156167981529" width="244.43135999999998"><g transform="matrix(1,0,0,1,103.51783213810995,17.145865248787942)"><svg viewBox="0 0 244.43135999999998 89.76892800412533" height="89.76892800412533" width="244.43135999999998"><g id="textblocktransform"><svg viewBox="0 0 244.43135999999998 89.76892800412533" height="89.76892800412533" width="244.43135999999998" id="textblock"><g><svg viewBox="0 0 244.43135999999998 48.44642122365038" height="48.44642122365038" width="244.43135999999998"><g transform="matrix(1,0,0,1,0,0)"><svg width="244.43135999999998" viewBox="1.100000023841858 -37.75 194.489990234375 38.54999923706055" height="48.44642122365038" data-palette-color="#ffa240"><path d="M30.85-24.45L28.95-24.45Q28.9-27.4 28.35-29.35 27.8-31.3 26.43-32.27 25.05-33.25 22.45-33.2L22.45-33.2 18.2-33.2 18.15-5.95Q18.15-4.6 18.13-3.63 18.1-2.65 18-2L18-2Q19.05-2.05 20.08-2.1 21.1-2.15 22.15-2.2L22.15-2.2 22.15 0 10.4 0 10.4-1.65Q12.3-1.75 12.98-2.55 13.65-3.35 13.73-4.73 13.8-6.1 13.8-7.8L13.8-7.8 13.85-33.15 8.7-33.1Q5.55-33.1 4.25-31 2.95-28.9 2.95-24.45L2.95-24.45 1.1-24.45 1.4-35 30.55-35 30.85-24.45ZM44 0.8L44 0.8Q41.3 0.8 39.47-0.2 37.65-1.2 36.72-3.6 35.8-6 35.8-10.1L35.8-10.1 35.8-19Q35.8-19.8 35.82-20.6 35.85-21.4 36-22.25L36-22.25Q35.15-22.2 34.27-22.18 33.4-22.15 32.55-22.1L32.55-22.1 32.55-24.15 34.1-24.15Q36.25-24.15 37.22-24.58 38.2-25 38.75-25.5L38.75-25.5 40.2-25.5 40.2-10.25Q40.2-5.95 41.42-3.83 42.65-1.7 45.6-1.75L45.6-1.75Q47.5-1.8 49.22-2.93 50.95-4.05 52-5.6L52-5.6 52-18.45Q52-19.65 52.05-20.53 52.1-21.4 52.25-22.25L52.25-22.25Q51.35-22.2 50.45-22.18 49.55-22.15 48.65-22.1L48.65-22.1 48.65-24.15 50.2-24.15Q52.35-24.15 53.32-24.58 54.3-25 54.85-25.5L54.85-25.5 56.3-25.5 56.25-6.6Q56.25-5.8 56.2-4.35 56.15-2.9 56.05-1.9L56.05-1.9Q56.95-1.95 57.85-2 58.75-2.05 59.65-2.1L59.65-2.1 59.65 0 52.5 0Q52.35-0.85 52.27-1.6 52.2-2.35 52.15-3L52.15-3Q50.6-1.45 48.4-0.33 46.2 0.8 44 0.8ZM73.55 0.8L73.55 0.8Q71.05 0.8 69.09 0.13 67.14-0.55 65.89-1.4L65.89-1.4 66.09 0.35 63.99 0.35 63.7-8.25 65.25-8.25Q65.34-6.2 66.39-4.58 67.44-2.95 69.09-2.05 70.75-1.15 72.64-1.15L72.64-1.15Q73.94-1.15 75.19-1.58 76.44-2 77.3-2.88 78.14-3.75 78.14-5.1L78.14-5.1Q78.14-6.5 77.32-7.43 76.5-8.35 75.14-9.05 73.8-9.75 72.25-10.35L72.25-10.35Q70.75-10.95 69.25-11.6 67.75-12.25 66.47-13.15 65.19-14.05 64.44-15.35 63.7-16.65 63.7-18.55L63.7-18.55Q63.7-19.6 64.09-20.85 64.5-22.1 65.44-23.23 66.39-24.35 68.05-25.08 69.69-25.8 72.25-25.8L72.25-25.8Q73.59-25.8 75.25-25.35 76.89-24.9 78.44-23.65L78.44-23.65 78.34-25.55 80.44-25.55 80.44-16.8 78.84-16.8Q78.75-18.55 78.05-20.18 77.34-21.8 76-22.88 74.64-23.95 72.5-23.95L72.5-23.95Q70.19-23.95 68.89-22.8 67.59-21.65 67.59-20.15L67.59-20.15Q67.59-18.6 68.57-17.57 69.55-16.55 71.09-15.8 72.64-15.05 74.39-14.35L74.39-14.35Q76.3-13.55 78.09-12.6 79.89-11.65 81.05-10.23 82.19-8.8 82.19-6.55L82.19-6.55Q82.19-4.05 80.92-2.4 79.64-0.75 77.67 0.03 75.69 0.8 73.55 0.8ZM96.99 0.8L96.99 0.8Q94.29 0.8 92.47-0.2 90.64-1.2 89.72-3.6 88.79-6 88.79-10.1L88.79-10.1 88.79-19Q88.79-19.8 88.82-20.6 88.84-21.4 88.99-22.25L88.99-22.25Q88.14-22.2 87.27-22.18 86.39-22.15 85.54-22.1L85.54-22.1 85.54-24.15 87.09-24.15Q89.24-24.15 90.22-24.58 91.19-25 91.74-25.5L91.74-25.5 93.19-25.5 93.19-10.25Q93.19-5.95 94.42-3.83 95.64-1.7 98.59-1.75L98.59-1.75Q100.49-1.8 102.22-2.93 103.94-4.05 104.99-5.6L104.99-5.6 104.99-18.45Q104.99-19.65 105.04-20.53 105.09-21.4 105.24-22.25L105.24-22.25Q104.34-22.2 103.44-22.18 102.54-22.15 101.64-22.1L101.64-22.1 101.64-24.15 103.19-24.15Q105.34-24.15 106.32-24.58 107.29-25 107.84-25.5L107.84-25.5 109.29-25.5 109.24-6.6Q109.24-5.8 109.19-4.35 109.14-2.9 109.04-1.9L109.04-1.9Q109.94-1.95 110.84-2 111.74-2.05 112.64-2.1L112.64-2.1 112.64 0 105.49 0Q105.34-0.85 105.27-1.6 105.19-2.35 105.14-3L105.14-3Q103.59-1.45 101.39-0.33 99.19 0.8 96.99 0.8ZM126.04 0L115.84 0 115.84-1.5Q117.39-1.5 117.97-2.27 118.54-3.05 118.64-4.42 118.74-5.8 118.74-7.6L118.74-7.6 118.79-31.25Q118.79-32.05 118.81-32.77 118.84-33.5 118.94-34.5L118.94-34.5Q118.04-34.45 117.17-34.4 116.29-34.35 115.39-34.3L115.39-34.3 115.39-36.4Q117.59-36.4 118.79-36.6 119.99-36.8 120.62-37.1 121.24-37.4 121.59-37.75L121.59-37.75 123.04-37.75 123.04-14.1 125.04-14.1 131.14-20.5Q131.99-21.35 132.69-22.03 133.39-22.7 134.09-23.15L134.09-23.15 130.69-23 130.69-25 139.79-25 139.79-23.5Q138.09-23.35 136.62-22.43 135.14-21.5 133.92-20.35 132.69-19.2 131.79-18.25L131.79-18.25 127.89-14.15Q128.89-13.7 129.59-13 130.29-12.3 130.99-11.45L130.99-11.45 134.54-6.9Q134.79-6.6 135.42-5.75 136.04-4.9 136.92-3.9 137.79-2.9 138.77-2.2 139.74-1.5 140.59-1.5L140.59-1.5 140.59 0 136.04 0Q134.64 0 133.39-1.45 132.14-2.9 130.74-4.7L130.74-4.7Q129.44-6.5 128.41-7.98 127.39-9.45 126.56-10.55 125.74-11.65 125.09-12.25L125.09-12.25 123.04-12.15 123.04-5.3Q123.04-4.3 123.02-3.53 122.99-2.75 122.84-1.9L122.84-1.9Q123.64-1.95 124.44-1.98 125.24-2 126.04-2.05L126.04-2.05 126.04 0ZM165.49 0L158.34 0Q158.19-0.85 158.14-1.5 158.09-2.15 157.99-2.85L157.99-2.85Q156.29-1.15 154.31-0.18 152.34 0.8 150.14 0.8L150.14 0.8Q146.34 0.8 144.49-0.93 142.64-2.65 142.64-5.15L142.64-5.15Q142.64-7.45 144.06-9.13 145.49-10.8 147.76-11.88 150.04-12.95 152.71-13.48 155.39-14 157.89-13.95L157.89-13.95 157.89-17.05Q157.89-18.8 157.59-20.35 157.29-21.9 156.29-22.9 155.29-23.9 153.09-23.95L153.09-23.95Q151.64-24 150.11-23.4 148.59-22.8 147.89-21.35L147.89-21.35Q148.29-20.95 148.41-20.43 148.54-19.9 148.54-19.45L148.54-19.45Q148.54-18.85 148.04-18.07 147.54-17.3 146.29-17.35L146.29-17.35Q145.24-17.35 144.69-18.07 144.14-18.8 144.14-19.8L144.14-19.8Q144.14-21.5 145.41-22.85 146.69-24.2 148.94-25 151.19-25.8 154.04-25.8L154.04-25.8Q158.24-25.8 160.24-23.58 162.24-21.35 162.19-16.55L162.19-16.55Q162.19-14.7 162.19-12.83 162.19-10.95 162.16-9.08 162.14-7.2 162.14-5.3L162.14-5.3Q162.14-4.5 162.09-3.7 162.04-2.9 161.94-1.9L161.94-1.9Q162.84-1.95 163.71-2 164.59-2.05 165.49-2.1L165.49-2.1 165.49 0ZM157.89-12.25L157.89-12.25Q156.19-12.2 154.31-11.83 152.44-11.45 150.86-10.7 149.29-9.95 148.31-8.72 147.34-7.5 147.39-5.75L147.39-5.75Q147.49-3.9 148.61-2.98 149.74-2.05 151.29-2.05L151.29-2.05Q153.34-2.05 154.86-2.83 156.39-3.6 157.89-5L157.89-5Q157.84-5.55 157.84-6.2 157.84-6.85 157.84-7.55L157.84-7.55Q157.84-7.8 157.86-9.15 157.89-10.5 157.89-12.25ZM179.14 0L168.94 0 168.94-1.5Q170.49-1.5 171.09-2.27 171.69-3.05 171.79-4.42 171.89-5.8 171.89-7.6L171.89-7.6 171.94-19Q171.94-19.8 171.96-20.6 171.99-21.4 172.14-22.25L172.14-22.25Q171.24-22.2 170.36-22.15 169.49-22.1 168.59-22.05L168.59-22.05 168.59-24.15Q170.79-24.15 171.91-24.35 173.04-24.55 173.59-24.85 174.14-25.15 174.49-25.5L174.49-25.5 175.94-25.5Q175.99-25.15 176.01-24.7 176.04-24.25 176.09-23.7 176.14-23.15 176.14-22.45L176.14-22.45Q177.24-23.4 178.56-24.15 179.89-24.9 181.36-25.35 182.84-25.8 184.29-25.8L184.29-25.8Q188.64-25.8 190.64-23.08 192.64-20.35 192.64-14.6L192.64-14.6 192.64-5.3Q192.64-4.3 192.61-3.53 192.59-2.75 192.44-1.9L192.44-1.9Q193.24-1.95 194.01-1.98 194.79-2 195.59-2.05L195.59-2.05 195.59 0 185.39 0 185.39-1.5Q186.94-1.5 187.54-2.27 188.14-3.05 188.24-4.42 188.34-5.8 188.34-7.6L188.34-7.6 188.34-14.6Q188.29-18.9 186.91-21.1 185.54-23.3 182.59-23.25L182.59-23.25Q180.79-23.2 179.06-22.3 177.34-21.4 176.19-20L176.19-20Q176.24-19.6 176.24-19.1 176.24-18.6 176.24-18.05L176.24-18.05 176.19-5.3Q176.19-4.3 176.16-3.53 176.14-2.75 175.99-1.9L175.99-1.9Q176.79-1.95 177.56-1.98 178.34-2 179.14-2.05L179.14-2.05 179.14 0Z" opacity="1" transform="matrix(1,0,0,1,0,0)" fill="#ffa240" class="undefined-text-0" data-fill-palette-color="primary" id="text-0"></path></svg></g></svg></g><g transform="matrix(1,0,0,1,0,59.88345856044487)"><svg viewBox="0 0 244.43135999999998 29.885469443680456" height="29.885469443680456" width="244.43135999999998"><g transform="matrix(1,0,0,1,0,0)"><svg width="244.43135999999998" viewBox="1.850000023841858 -37.099998474121094 399.9100036621094 48.89999771118164" height="29.885469443680456" data-palette-color="#6a3b1d"><path d="M11 0.6Q8.7 0.6 6.75 0.18 4.8-0.25 3.53-0.75 2.25-1.25 2.25-1.3L2.25-1.3 1.85-2Q1.9-2.35 2.08-3.53 2.25-4.7 2.45-6.68 2.65-8.65 2.65-10.5L2.65-10.5 6.75-10.8Q6.75-8 7.25-6.5 7.75-5 8.93-4.38 10.1-3.75 12.3-3.75L12.3-3.75Q14.7-3.75 16.15-4.8 17.6-5.85 17.6-7.7L17.6-7.7Q17.6-9.35 16.07-10.5 14.55-11.65 11.35-13.2L11.35-13.2Q11.15-13.3 10.2-13.75L10.2-13.75Q6.45-15.55 4.35-17.55 2.25-19.55 2.25-22.75L2.25-22.75Q2.25-25.6 3.95-27.88 5.65-30.15 8.68-31.43 11.7-32.7 15.55-32.7L15.55-32.7Q17.75-32.7 19.63-32.4 21.5-32.1 22.63-31.78 23.75-31.45 24.05-31.35L24.05-31.35 24.4-30.7Q24.35-30.4 24.1-29.18 23.85-27.95 23.6-26.05 23.35-24.15 23.2-22.15L23.2-22.15 19.5-21.85 19.05-22.15Q19.05-22.3 19.1-22.78 19.15-23.25 19.15-23.95L19.15-23.95Q19.15-26.2 18.03-27.15 16.9-28.1 14.25-28.1L14.25-28.1Q12.1-28.1 10.73-27.08 9.35-26.05 9.35-24.45L9.35-24.45Q9.35-23.25 10.23-22.28 11.1-21.3 12.33-20.6 13.55-19.9 15.9-18.75L15.9-18.75Q18.7-17.4 20.53-16.3 22.35-15.2 23.6-13.5 24.85-11.8 24.85-9.45L24.85-9.45Q24.85-6.45 23.13-4.17 21.4-1.9 18.28-0.65 15.15 0.6 11 0.6L11 0.6ZM45.3 0.6Q43.1 0.6 41.82-0.38 40.55-1.35 40.3-3.25L40.3-3.25 39.9-3.4Q38.3-1.75 36.8-0.68 35.3 0.4 34.4 0.4L34.4 0.4Q31.45 0.4 29.5-1.68 27.55-3.75 27.55-6.85L27.55-6.85Q27.55-8.4 28.35-9.53 29.15-10.65 30.45-11L30.45-11 40.1-13.25 40.15-14.45Q40.15-16.6 39-17.8 37.85-19 35.85-19L35.85-19Q34.5-19 32.92-18.32 31.35-17.65 30-16.65L30-16.65 29.55-16.85 28.7-19.85Q31.2-21.25 33.95-22.45 36.7-23.65 37.85-23.65L37.85-23.65Q42-23.65 44.07-21.78 46.15-19.9 46.15-16.85L46.15-16.85Q46.15-15.75 45.7-12.35L45.7-12.35Q45.15-7.5 45.15-6.55L45.15-6.55Q45.15-5.6 45.65-5.05 46.15-4.5 46.95-4.5L46.95-4.5Q47.55-4.5 48.22-4.78 48.9-5.05 49.35-5.35L49.35-5.35 50.1-4.3Q49.2-2.7 47.87-1.23 46.55 0.25 45.3 0.6L45.3 0.6ZM36.25-4.35Q37-4.35 38.02-4.75 39.05-5.15 39.85-5.8L39.85-5.8 40-10.55 34.65-9.05Q33.45-8.75 33.45-7.4L33.45-7.4Q33.45-6.1 34.22-5.23 35-4.35 36.25-4.35L36.25-4.35ZM52.55-2.85Q54.05-2.95 54.57-3.65 55.1-4.35 55.1-6.3L55.1-6.3 55.1-16.25Q55.1-17.95 54.65-18.57 54.2-19.2 52.95-19.2L52.95-19.2 52-19.15 51.75-19.5 52.05-22Q54.7-22.45 57.47-23 60.25-23.55 61.05-23.7L61.05-23.7 61.5-23.25Q61.4-22.8 61.22-21.35 61.05-19.9 61-18.55L61-18.55 61.3-18.35Q62.85-20.7 64.72-22 66.59-23.3 68.3-23.3L68.3-23.3Q69-23.3 69.45-23.25 69.9-23.2 70.05-23.15L70.05-23.15 70.25-22.75Q70.09-21.9 69.75-19.07 69.4-16.25 69.25-13.7L69.25-13.7 66.05-13.5Q66.05-15.9 65.77-16.68 65.5-17.45 64.65-17.45L64.65-17.45Q63.85-17.45 62.95-16.85 62.05-16.25 61.25-15.2L61.25-15.2Q61.2-13.8 61.02-10.63 60.85-7.45 60.8-5.55L60.8-5.55Q60.8-4.25 61.22-3.75 61.65-3.25 62.75-3.25L62.75-3.25Q63.5-3.25 64.25-3.3 65-3.35 65.25-3.4L65.25-3.4 65.4-3.1 64.84 0.2Q64.15 0.15 62.27 0.08 60.4 0 58.4 0L58.4 0Q56.5 0 54.6 0.08 52.7 0.15 52.15 0.2L52.15 0.2 52.55-2.85ZM89.49 0.6Q87.29 0.6 86.02-0.38 84.74-1.35 84.49-3.25L84.49-3.25 84.09-3.4Q82.49-1.75 80.99-0.68 79.49 0.4 78.59 0.4L78.59 0.4Q75.64 0.4 73.69-1.68 71.74-3.75 71.74-6.85L71.74-6.85Q71.74-8.4 72.54-9.53 73.34-10.65 74.64-11L74.64-11 84.29-13.25 84.34-14.45Q84.34-16.6 83.19-17.8 82.04-19 80.04-19L80.04-19Q78.69-19 77.12-18.32 75.54-17.65 74.19-16.65L74.19-16.65 73.74-16.85 72.89-19.85Q75.39-21.25 78.14-22.45 80.89-23.65 82.04-23.65L82.04-23.65Q86.19-23.65 88.27-21.78 90.34-19.9 90.34-16.85L90.34-16.85Q90.34-15.75 89.89-12.35L89.89-12.35Q89.34-7.5 89.34-6.55L89.34-6.55Q89.34-5.6 89.84-5.05 90.34-4.5 91.14-4.5L91.14-4.5Q91.74-4.5 92.42-4.78 93.09-5.05 93.54-5.35L93.54-5.35 94.29-4.3Q93.39-2.7 92.07-1.23 90.74 0.25 89.49 0.6L89.49 0.6ZM80.44-4.35Q81.19-4.35 82.22-4.75 83.24-5.15 84.04-5.8L84.04-5.8 84.19-10.55 78.84-9.05Q77.64-8.75 77.64-7.4L77.64-7.4Q77.64-6.1 78.42-5.23 79.19-4.35 80.44-4.35L80.44-4.35ZM96.04 11.8L96.44 8.75Q97.84 8.65 98.27 8.05 98.69 7.45 98.74 5.6L98.74 5.6Q98.99 0.85 98.99-2.05L98.99-2.05 98.99-16.2Q98.99-17.9 98.47-18.55 97.94-19.2 96.54-19.2L96.54-19.2 95.89-19.2 95.69-19.45 95.94-22.05Q98.74-22.45 101.49-23 104.24-23.55 105.04-23.7L105.04-23.7 105.49-23.2Q105.44-22.9 105.24-21.93 105.04-20.95 104.94-20.05L104.94-20.05 105.14-19.8Q109.24-23.45 110.19-23.45L110.19-23.45Q113.14-23.45 115.39-22.1 117.64-20.75 118.87-18.25 120.09-15.75 120.09-12.5L120.09-12.5Q120.09-8.65 118.39-5.7 116.69-2.75 113.69-1.13 110.69 0.5 106.84 0.5L106.84 0.5Q106.19 0.5 105.54 0.45 104.89 0.4 104.64 0.35L104.64 0.35 104.69 5Q104.69 7.05 105.02 7.75 105.34 8.45 106.49 8.45L106.49 8.45Q107.19 8.45 107.72 8.4 108.24 8.35 108.54 8.35L108.54 8.35 108.64 8.55 108.09 11.6Q106.99 11.6 106.14 11.55L106.14 11.55 102.09 11.5Q100.34 11.5 98.47 11.63 96.59 11.75 96.04 11.8L96.04 11.8ZM108.59-3.55Q111.04-3.55 112.39-5.4 113.74-7.25 113.74-10.6L113.74-10.6Q113.74-14.25 112.37-16.43 110.99-18.6 108.74-18.6L108.74-18.6Q108.04-18.6 107.04-18.18 106.04-17.75 105.14-17.05L105.14-17.05Q104.84-11.2 104.84-4.3L104.84-4.3Q105.49-4.05 106.54-3.8 107.59-3.55 108.59-3.55L108.59-3.55ZM146.03-2.7Q147.28-2.95 147.81-3.6 148.34-4.25 148.39-5.5L148.39-5.5 148.53-14.15Q148.53-16.35 147.74-17.43 146.94-18.5 145.28-18.5L145.28-18.5Q143.39-18.5 140.89-16.6L140.89-16.6Q140.39-7.6 140.39-5.35L140.39-5.35Q140.39-4.1 140.71-3.6 141.03-3.1 141.89-3.1L141.89-3.1 143.24-3.15 143.34-2.95 142.84 0.15Q142.28 0.1 140.76 0.05 139.24 0 137.59 0L137.59 0Q135.99 0 134.11 0.13 132.24 0.25 131.69 0.3L131.69 0.3 132.09-2.8Q133.53-2.95 134.11-3.58 134.69-4.2 134.69-5.6L134.69-5.6 134.69-16.2Q134.69-17.95 134.16-18.57 133.64-19.2 132.24-19.2L132.24-19.2 131.59-19.2 131.39-19.45 131.64-22.05Q134.49-22.45 137.26-23 140.03-23.55 140.84-23.7L140.84-23.7 141.24-23.2Q141.14-22.9 140.94-21.85 140.74-20.8 140.69-19.75L140.69-19.75 140.89-19.55Q142.44-20.9 144.46-22.28 146.49-23.65 147.39-23.65L147.39-23.65Q150.94-23.65 152.91-21.95 154.89-20.25 154.89-17.2L154.89-17.2Q154.89-16.45 154.49-11.95L154.49-11.95Q153.99-6.85 153.99-5.4L153.99-5.4Q153.99-4.1 154.36-3.55 154.74-3 155.54-3L155.54-3Q156.04-3 156.49-3.05 156.94-3.1 157.09-3.1L157.09-3.1 157.19-2.9 156.74 0.15Q156.14 0.1 154.56 0.05 152.99 0 151.34 0L151.34 0Q150.14 0 148.26 0.18 146.39 0.35 145.78 0.4L145.78 0.4 146.03-2.7ZM177.28 0.6Q175.08 0.6 173.81-0.38 172.53-1.35 172.28-3.25L172.28-3.25 171.88-3.4Q170.28-1.75 168.78-0.68 167.28 0.4 166.38 0.4L166.38 0.4Q163.43 0.4 161.48-1.68 159.53-3.75 159.53-6.85L159.53-6.85Q159.53-8.4 160.33-9.53 161.13-10.65 162.43-11L162.43-11 172.08-13.25 172.13-14.45Q172.13-16.6 170.98-17.8 169.83-19 167.83-19L167.83-19Q166.48-19 164.91-18.32 163.33-17.65 161.98-16.65L161.98-16.65 161.53-16.85 160.68-19.85Q163.18-21.25 165.93-22.45 168.68-23.65 169.83-23.65L169.83-23.65Q173.98-23.65 176.06-21.78 178.13-19.9 178.13-16.85L178.13-16.85Q178.13-15.75 177.68-12.35L177.68-12.35Q177.13-7.5 177.13-6.55L177.13-6.55Q177.13-5.6 177.63-5.05 178.13-4.5 178.93-4.5L178.93-4.5Q179.53-4.5 180.21-4.78 180.88-5.05 181.33-5.35L181.33-5.35 182.08-4.3Q181.18-2.7 179.86-1.23 178.53 0.25 177.28 0.6L177.28 0.6ZM168.23-4.35Q168.98-4.35 170.01-4.75 171.03-5.15 171.83-5.8L171.83-5.8 171.98-10.55 166.63-9.05Q165.43-8.75 165.43-7.4L165.43-7.4Q165.43-6.1 166.21-5.23 166.98-4.35 168.23-4.35L168.23-4.35ZM206.98-2.7Q208.18-2.95 208.7-3.6 209.23-4.25 209.28-5.5L209.28-5.5 209.43-14.15Q209.43-16.35 208.63-17.43 207.83-18.5 206.18-18.5L206.18-18.5Q204.28-18.5 201.78-16.6L201.78-16.6Q201.28-7.6 201.28-5.35L201.28-5.35Q201.28-4.05 201.6-3.58 201.93-3.1 202.78-3.1L202.78-3.1 204.13-3.15 204.23-2.95 203.73 0.15Q203.18 0.1 201.65 0.05 200.13 0 198.48 0L198.48 0Q196.43 0 194.75 0.05 193.08 0.1 192.53 0.15L192.53 0.15 192.98-2.9Q194.43-3 195-3.6 195.58-4.2 195.58-5.6L195.58-5.6 195.58-16.2Q195.58-17.95 195.05-18.57 194.53-19.2 193.13-19.2L193.13-19.2 192.48-19.2 192.28-19.45 192.53-22.05Q195.33-22.45 198.13-23 200.93-23.55 201.73-23.7L201.73-23.7 202.13-23.2Q202.03-22.9 201.83-21.85 201.63-20.8 201.58-19.75L201.58-19.75 201.73-19.6Q203.48-21 205.45-22.33 207.43-23.65 208.28-23.65L208.28-23.65Q211.08-23.65 212.85-22.6 214.63-21.55 215.33-19.5L215.33-19.5Q216.73-20.75 218.9-22.2 221.08-23.65 221.98-23.65L221.98-23.65Q225.53-23.65 227.53-21.95 229.53-20.25 229.53-17.2L229.53-17.2Q229.53-16 229.08-11.95L229.08-11.95Q228.58-6.85 228.58-5.4L228.58-5.4Q228.58-4.1 228.95-3.55 229.33-3 230.18-3L230.18-3Q230.63-3 231.1-3.05 231.58-3.1 231.73-3.1L231.73-3.1 231.83-2.9 231.33 0.15Q230.73 0.1 229.13 0.05 227.53 0 225.88 0L225.88 0Q224.68 0 222.85 0.1 221.03 0.2 220.48 0.25L220.48 0.25 220.83-2.85Q221.98-3 222.45-3.6 222.93-4.2 222.98-5.5L222.98-5.5 223.13-14.15Q223.18-18.5 219.88-18.5L219.88-18.5Q217.98-18.5 215.58-16.65L215.58-16.65 214.93-5.4Q214.93-4.1 215.3-3.55 215.68-3 216.48-3L216.48-3Q216.93-3 217.33-3.05 217.73-3.1 217.88-3.1L217.88-3.1 217.98-2.9 217.48 0.15Q216.93 0.1 215.38 0.05 213.83 0 212.23 0L212.23 0Q211.03 0 209.13 0.18 207.23 0.35 206.63 0.4L206.63 0.4 206.98-2.7ZM252.03 0.6Q249.83 0.6 248.55-0.38 247.28-1.35 247.03-3.25L247.03-3.25 246.63-3.4Q245.03-1.75 243.53-0.68 242.03 0.4 241.13 0.4L241.13 0.4Q238.18 0.4 236.23-1.68 234.28-3.75 234.28-6.85L234.28-6.85Q234.28-8.4 235.08-9.53 235.88-10.65 237.18-11L237.18-11 246.83-13.25 246.88-14.45Q246.88-16.6 245.73-17.8 244.58-19 242.58-19L242.58-19Q241.23-19 239.65-18.32 238.08-17.65 236.73-16.65L236.73-16.65 236.28-16.85 235.43-19.85Q237.93-21.25 240.68-22.45 243.43-23.65 244.58-23.65L244.58-23.65Q248.73-23.65 250.8-21.78 252.88-19.9 252.88-16.85L252.88-16.85Q252.88-15.75 252.43-12.35L252.43-12.35Q251.88-7.5 251.88-6.55L251.88-6.55Q251.88-5.6 252.38-5.05 252.88-4.5 253.68-4.5L253.68-4.5Q254.28-4.5 254.95-4.78 255.63-5.05 256.07-5.35L256.07-5.35 256.82-4.3Q255.93-2.7 254.6-1.23 253.28 0.25 252.03 0.6L252.03 0.6ZM242.98-4.35Q243.73-4.35 244.75-4.75 245.78-5.15 246.58-5.8L246.58-5.8 246.73-10.55 241.38-9.05Q240.18-8.75 240.18-7.4L240.18-7.4Q240.18-6.1 240.95-5.23 241.73-4.35 242.98-4.35L242.98-4.35ZM257.87 0.45L258.22-2.6Q259.37-2.85 259.9-3.33 260.42-3.8 260.57-4.53 260.72-5.25 260.72-6.7L260.72-6.7 260.72-29.9Q260.72-31.25 260.5-31.83 260.27-32.4 259.62-32.58 258.97-32.75 257.47-32.65L257.47-32.65 257.27-32.85 257.57-35.5Q263.62-36.3 267.67-37.1L267.67-37.1 268.02-36.15Q267.32-34.5 266.9-25.95 266.47-17.4 266.47-5.25L266.47-5.25Q266.47-4 266.82-3.5 267.17-3 267.97-3L267.97-3 269.62-3.1 269.77-2.8 269.22 0.15 267.57 0.1Q264.77 0 263.57 0L263.57 0Q261.67 0 257.87 0.45L257.87 0.45ZM289.32 0.6Q287.12 0.6 285.84-0.38 284.57-1.35 284.32-3.25L284.32-3.25 283.92-3.4Q282.32-1.75 280.82-0.68 279.32 0.4 278.42 0.4L278.42 0.4Q275.47 0.4 273.52-1.68 271.57-3.75 271.57-6.85L271.57-6.85Q271.57-8.4 272.37-9.53 273.17-10.65 274.47-11L274.47-11 284.12-13.25 284.17-14.45Q284.17-16.6 283.02-17.8 281.87-19 279.87-19L279.87-19Q278.52-19 276.94-18.32 275.37-17.65 274.02-16.65L274.02-16.65 273.57-16.85 272.72-19.85Q275.22-21.25 277.97-22.45 280.72-23.65 281.87-23.65L281.87-23.65Q286.02-23.65 288.09-21.78 290.17-19.9 290.17-16.85L290.17-16.85Q290.17-15.75 289.72-12.35L289.72-12.35Q289.17-7.5 289.17-6.55L289.17-6.55Q289.17-5.6 289.67-5.05 290.17-4.5 290.97-4.5L290.97-4.5Q291.57-4.5 292.24-4.78 292.92-5.05 293.37-5.35L293.37-5.35 294.12-4.3Q293.22-2.7 291.89-1.23 290.57 0.25 289.32 0.6L289.32 0.6ZM280.27-4.35Q281.02-4.35 282.04-4.75 283.07-5.15 283.87-5.8L283.87-5.8 284.02-10.55 278.67-9.05Q277.47-8.75 277.47-7.4L277.47-7.4Q277.47-6.1 278.24-5.23 279.02-4.35 280.27-4.35L280.27-4.35ZM295.17 0.45L295.52-2.6Q296.67-2.85 297.19-3.33 297.72-3.8 297.87-4.53 298.02-5.25 298.02-6.7L298.02-6.7 298.02-29.9Q298.02-31.25 297.79-31.83 297.57-32.4 296.92-32.58 296.27-32.75 294.77-32.65L294.77-32.65 294.57-32.85 294.87-35.5Q300.92-36.3 304.97-37.1L304.97-37.1 305.32-36.15Q304.62-34.5 304.19-25.95 303.77-17.4 303.77-5.25L303.77-5.25Q303.77-4 304.12-3.5 304.47-3 305.27-3L305.27-3 306.92-3.1 307.07-2.8 306.52 0.15 304.87 0.1Q302.07 0 300.87 0L300.87 0Q298.97 0 295.17 0.45L295.17 0.45ZM326.61 0.6Q324.41 0.6 323.14-0.38 321.86-1.35 321.61-3.25L321.61-3.25 321.21-3.4Q319.61-1.75 318.11-0.68 316.61 0.4 315.71 0.4L315.71 0.4Q312.76 0.4 310.81-1.68 308.86-3.75 308.86-6.85L308.86-6.85Q308.86-8.4 309.66-9.53 310.46-10.65 311.76-11L311.76-11 321.41-13.25 321.46-14.45Q321.46-16.6 320.31-17.8 319.16-19 317.16-19L317.16-19Q315.81-19 314.24-18.32 312.66-17.65 311.31-16.65L311.31-16.65 310.86-16.85 310.01-19.85Q312.51-21.25 315.26-22.45 318.01-23.65 319.16-23.65L319.16-23.65Q323.31-23.65 325.39-21.78 327.46-19.9 327.46-16.85L327.46-16.85Q327.46-15.75 327.01-12.35L327.01-12.35Q326.46-7.5 326.46-6.55L326.46-6.55Q326.46-5.6 326.96-5.05 327.46-4.5 328.26-4.5L328.26-4.5Q328.86-4.5 329.54-4.78 330.21-5.05 330.66-5.35L330.66-5.35 331.41-4.3Q330.51-2.7 329.19-1.23 327.86 0.25 326.61 0.6L326.61 0.6ZM317.56-4.35Q318.31-4.35 319.34-4.75 320.36-5.15 321.16-5.8L321.16-5.8 321.31-10.55 315.96-9.05Q314.76-8.75 314.76-7.4L314.76-7.4Q314.76-6.1 315.54-5.23 316.31-4.35 317.56-4.35L317.56-4.35ZM340.16 0.6Q338.36 0.6 336.89 0.3 335.41 0 334.56-0.33 333.71-0.65 333.51-0.75L333.51-0.75 333.21-1.25Q333.41-2.6 333.59-4.4 333.76-6.2 333.86-7.85L333.86-7.85 336.61-8.1Q336.66-3.05 341.06-3.05L341.06-3.05Q342.51-3.05 343.46-3.68 344.41-4.3 344.41-5.25L344.41-5.25Q344.41-6.25 343.41-7.08 342.41-7.9 339.41-9.35L339.41-9.35Q336.41-10.75 335.06-12.33 333.71-13.9 333.71-16L333.71-16Q333.71-18.25 335.01-19.98 336.31-21.7 338.66-22.68 341.01-23.65 344.01-23.65L344.01-23.65Q345.46-23.65 346.71-23.45 347.96-23.25 348.69-23.03 349.41-22.8 349.61-22.75L349.61-22.75 349.86-22.25Q349.76-21.7 349.44-19.78 349.11-17.85 348.91-15.8L348.91-15.8 346.11-15.6 346.16-16.5Q346.16-18.25 345.31-19.07 344.46-19.9 342.66-19.9L342.66-19.9Q341.36-19.9 340.46-19.28 339.56-18.65 339.56-17.7L339.56-17.7Q339.56-16.75 340.36-15.95 341.16-15.15 343.01-14.25L343.01-14.25Q345.96-12.85 347.54-11.75 349.11-10.65 349.74-9.53 350.36-8.4 350.36-6.85L350.36-6.85Q350.36-4.8 349.01-3.1 347.66-1.4 345.31-0.4 342.96 0.6 340.16 0.6L340.16 0.6ZM371.16 0.6Q368.96 0.6 367.68-0.38 366.41-1.35 366.16-3.25L366.16-3.25 365.76-3.4Q364.16-1.75 362.66-0.68 361.16 0.4 360.26 0.4L360.26 0.4Q357.31 0.4 355.36-1.68 353.41-3.75 353.41-6.85L353.41-6.85Q353.41-8.4 354.21-9.53 355.01-10.65 356.31-11L356.31-11 365.96-13.25 366.01-14.45Q366.01-16.6 364.86-17.8 363.71-19 361.71-19L361.71-19Q360.36-19 358.78-18.32 357.21-17.65 355.86-16.65L355.86-16.65 355.41-16.85 354.56-19.85Q357.06-21.25 359.81-22.45 362.56-23.65 363.71-23.65L363.71-23.65Q367.86-23.65 369.93-21.78 372.01-19.9 372.01-16.85L372.01-16.85Q372.01-15.75 371.56-12.35L371.56-12.35Q371.01-7.5 371.01-6.55L371.01-6.55Q371.01-5.6 371.51-5.05 372.01-4.5 372.81-4.5L372.81-4.5Q373.41-4.5 374.08-4.78 374.76-5.05 375.21-5.35L375.21-5.35 375.96-4.3Q375.06-2.7 373.73-1.23 372.41 0.25 371.16 0.6L371.16 0.6ZM362.11-4.35Q362.86-4.35 363.88-4.75 364.91-5.15 365.71-5.8L365.71-5.8 365.86-10.55 360.51-9.05Q359.31-8.75 359.31-7.4L359.31-7.4Q359.31-6.1 360.08-5.23 360.86-4.35 362.11-4.35L362.11-4.35ZM377.71 11.8L378.11 8.75Q379.51 8.65 379.93 8.05 380.36 7.45 380.41 5.6L380.41 5.6Q380.66 0.85 380.66-2.05L380.66-2.05 380.66-16.2Q380.66-17.9 380.13-18.55 379.61-19.2 378.21-19.2L378.21-19.2 377.56-19.2 377.36-19.45 377.61-22.05Q380.41-22.45 383.16-23 385.91-23.55 386.71-23.7L386.71-23.7 387.16-23.2Q387.11-22.9 386.91-21.93 386.71-20.95 386.61-20.05L386.61-20.05 386.81-19.8Q390.91-23.45 391.86-23.45L391.86-23.45Q394.81-23.45 397.06-22.1 399.31-20.75 400.53-18.25 401.76-15.75 401.76-12.5L401.76-12.5Q401.76-8.65 400.06-5.7 398.36-2.75 395.36-1.13 392.36 0.5 388.51 0.5L388.51 0.5Q387.86 0.5 387.21 0.45 386.56 0.4 386.31 0.35L386.31 0.35 386.36 5Q386.36 7.05 386.68 7.75 387.01 8.45 388.16 8.45L388.16 8.45Q388.86 8.45 389.38 8.4 389.91 8.35 390.21 8.35L390.21 8.35 390.31 8.55 389.76 11.6Q388.66 11.6 387.81 11.55L387.81 11.55 383.76 11.5Q382.01 11.5 380.13 11.63 378.26 11.75 377.71 11.8L377.71 11.8ZM390.26-3.55Q392.71-3.55 394.06-5.4 395.41-7.25 395.41-10.6L395.41-10.6Q395.41-14.25 394.03-16.43 392.66-18.6 390.41-18.6L390.41-18.6Q389.71-18.6 388.71-18.18 387.71-17.75 386.81-17.05L386.81-17.05Q386.51-11.2 386.51-4.3L386.51-4.3Q387.16-4.05 388.21-3.8 389.26-3.55 390.26-3.55L390.26-3.55Z" opacity="1" transform="matrix(1,0,0,1,0,0)" fill="#6a3b1d" class="undefined-text-1" data-fill-palette-color="secondary" id="text-1"></path></svg></g></svg></g></svg></g></svg></g><g><svg viewBox="0 0 92.08079480131546 124.06065850170121" height="124.06065850170121" width="92.08079480131546"><g><svg xmlns="http://www.w3.org/2000/svg" xmlns:xlink="http://www.w3.org/1999/xlink" version="1.1" x="0" y="0" viewBox="66.15249633789062 0.21702241897583008 379.696533203125 511.56597900390625" enable-background="new 0 0 512 512" xml:space="preserve" height="124.06065850170121" width="92.08079480131546" class="icon-icon-0" data-fill-palette-color="accent" id="icon-0"><g fill="#bf6b34" data-fill-palette-color="accent"><g fill="#bf6b34" data-fill-palette-color="accent"><g fill="#bf6b34" data-fill-palette-color="accent"><g fill="#bf6b34" data-fill-palette-color="accent"><path d="M258.007 495.836c-2.209 0-3.998-1.787-3.998-3.996v-55.992c0-2.209 1.788-3.996 3.998-3.996 2.209 0 3.996 1.787 3.996 3.996v55.992C262.003 494.049 260.216 495.836 258.007 495.836z" fill="#bf6b34" data-fill-palette-color="accent"></path></g></g><g fill="#bf6b34" data-fill-palette-color="accent"><g fill="#bf6b34" data-fill-palette-color="accent"><path d="M242.02 495.836c-2.209 0-3.997-1.787-3.997-3.996v-55.992c0-2.209 1.788-3.996 3.997-3.996s3.996 1.787 3.996 3.996v55.992C246.016 494.049 244.229 495.836 242.02 495.836z" fill="#bf6b34" data-fill-palette-color="accent"></path></g></g><g fill="#bf6b34" data-fill-palette-color="accent"><g fill="#bf6b34" data-fill-palette-color="accent"><path d="M250.009 511.783c-0.602 0-1.214-0.132-1.788-0.421-1.971-0.991-2.771-3.396-1.779-5.362l7.993-15.947c0.987-1.983 3.396-2.779 5.363-1.788 1.971 0.991 2.768 3.396 1.779 5.362l-7.993 15.947C252.885 510.979 251.472 511.783 250.009 511.783z" fill="#bf6b34" data-fill-palette-color="accent"></path></g></g><g fill="#bf6b34" data-fill-palette-color="accent"><g fill="#bf6b34" data-fill-palette-color="accent"><path d="M250.017 511.783c-1.464 0-2.877-0.804-3.575-2.209l-7.993-15.947c-0.991-1.967-0.191-4.371 1.779-5.362 1.979-0.991 4.379-0.195 5.362 1.788L253.584 506c0.991 1.967 0.19 4.371-1.78 5.362C251.231 511.651 250.618 511.783 250.017 511.783z" fill="#bf6b34" data-fill-palette-color="accent"></path></g></g><g fill="#bf6b34" data-fill-palette-color="accent"><g fill="#bf6b34" data-fill-palette-color="accent"><path d="M258.007 8.214H242.02c-2.209 0-3.997-1.787-3.997-3.996 0-2.209 1.788-3.997 3.997-3.997h15.987c2.209 0 3.996 1.788 3.996 3.997C262.003 6.427 260.216 8.214 258.007 8.214z" fill="#bf6b34" data-fill-palette-color="accent"></path></g></g><g fill="#bf6b34" data-fill-palette-color="accent"><g fill="#bf6b34" data-fill-palette-color="accent"><path d="M258.007 80.153H242.02c-2.209 0-3.997-1.788-3.997-3.997 0-2.209 1.788-3.996 3.997-3.996h15.987c2.209 0 3.996 1.787 3.996 3.996C262.003 78.366 260.216 80.153 258.007 80.153z" fill="#bf6b34" data-fill-palette-color="accent"></path></g></g><g fill="#bf6b34" data-fill-palette-color="accent"><g fill="#bf6b34" data-fill-palette-color="accent"><path d="M258.007 56.174H242.02c-2.209 0-3.997-1.788-3.997-3.997s1.788-3.997 3.997-3.997h15.987c2.209 0 3.996 1.788 3.996 3.997S260.216 56.174 258.007 56.174z" fill="#bf6b34" data-fill-palette-color="accent"></path></g></g><g fill="#bf6b34" data-fill-palette-color="accent"><g fill="#bf6b34" data-fill-palette-color="accent"><path d="M258.007 32.194H242.02c-2.209 0-3.997-1.788-3.997-3.997s1.788-3.997 3.997-3.997h15.987c2.209 0 3.996 1.788 3.996 3.997S260.216 32.194 258.007 32.194z" fill="#bf6b34" data-fill-palette-color="accent"></path></g></g><g fill="#bf6b34" data-fill-palette-color="accent"><g fill="#bf6b34" data-fill-palette-color="accent"><path d="M234.026 335.933h31.973c11.019 0 19.983 8.962 19.983 19.983v31.973c0 11.021-8.965 19.983-19.983 19.983h-31.973c-11.021 0-19.982-8.962-19.982-19.983v-31.973C214.043 344.895 223.004 335.933 234.026 335.933zM265.999 399.879c6.612 0 11.99-5.379 11.99-11.99v-31.973c0-6.611-5.378-11.99-11.99-11.99h-31.973c-6.611 0-11.989 5.379-11.989 11.99v31.973c0 6.611 5.378 11.99 11.989 11.99H265.999z" fill="#bf6b34" data-fill-palette-color="accent"></path></g></g><g fill="#bf6b34" data-fill-palette-color="accent"><g fill="#bf6b34" data-fill-palette-color="accent"><path d="M218.04 367.906c2.209 0 3.997 1.787 3.997 3.996v31.973c0 6.611 5.378 11.99 11.989 11.99h31.973c6.612 0 11.99-5.379 11.99-11.99v-31.973c0-2.209 1.788-3.996 3.997-3.996s3.996 1.787 3.996 3.996v31.973c0 11.022-8.965 19.983-19.983 19.983h-31.973c-11.021 0-19.982-8.961-19.982-19.983v-31.973C214.043 369.693 215.831 367.906 218.04 367.906z" fill="#bf6b34" data-fill-palette-color="accent"></path></g></g><g fill="#bf6b34" data-fill-palette-color="accent"><g fill="#bf6b34" data-fill-palette-color="accent"><path d="M234.026 128.112h31.973c11.019 0 19.983 8.961 19.983 19.983v31.973c0 11.022-8.965 19.983-19.983 19.983h-31.973c-11.021 0-19.982-8.961-19.982-19.983v-31.973C214.043 137.073 223.004 128.112 234.026 128.112zM265.999 192.058c6.612 0 11.99-5.378 11.99-11.99v-31.973c0-6.612-5.378-11.99-11.99-11.99h-31.973c-6.611 0-11.989 5.378-11.989 11.99v31.973c0 6.611 5.378 11.99 11.989 11.99H265.999z" fill="#bf6b34" data-fill-palette-color="accent"></path></g></g><g fill="#bf6b34" data-fill-palette-color="accent"><g fill="#bf6b34" data-fill-palette-color="accent"><path d="M218.04 160.085c2.209 0 3.997 1.788 3.997 3.997v31.973c0 6.611 5.378 11.99 11.989 11.99h31.973c6.612 0 11.99-5.379 11.99-11.99v-31.973c0-2.209 1.788-3.997 3.997-3.997s3.996 1.788 3.996 3.997v31.973c0 11.022-8.965 19.983-19.983 19.983h-31.973c-11.021 0-19.982-8.961-19.982-19.983v-31.973C214.043 161.873 215.831 160.085 218.04 160.085z" fill="#bf6b34" data-fill-palette-color="accent"></path></g></g><g fill="#bf6b34" data-fill-palette-color="accent"><g fill="#bf6b34" data-fill-palette-color="accent"><path d="M258.007 327.939c-2.209 0-3.998-1.787-3.998-3.996v-23.98c0-2.209 1.788-3.996 3.998-3.996 2.209 0 3.996 1.787 3.996 3.996v23.98C262.003 326.152 260.216 327.939 258.007 327.939z" fill="#bf6b34" data-fill-palette-color="accent"></path></g></g><g fill="#bf6b34" data-fill-palette-color="accent"><g fill="#bf6b34" data-fill-palette-color="accent"><path d="M242.02 327.939c-2.209 0-3.997-1.787-3.997-3.996v-23.98c0-2.209 1.788-3.996 3.997-3.996s3.996 1.787 3.996 3.996v23.98C246.016 326.152 244.229 327.939 242.02 327.939z" fill="#bf6b34" data-fill-palette-color="accent"></path></g></g><g fill="#bf6b34" data-fill-palette-color="accent"><g fill="#bf6b34" data-fill-palette-color="accent"><path d="M250.013 274.367c-19.297 0-51.956-3.364-51.956-15.982 0-6.877 9.219-11.701 27.402-14.339 2.166-0.289 4.211 1.202 4.527 3.388 0.32 2.178-1.194 4.207-3.38 4.527-15.257 2.209-20.108 5.675-20.607 6.713 1.421 2.396 17.341 7.7 44.014 7.7 26.673 0 42.597-5.304 44.009-8.278-0.491-0.46-5.347-3.926-20.6-6.135-2.186-0.32-3.699-2.35-3.388-4.527 0.312-2.193 2.365-3.646 4.527-3.388 18.188 2.638 27.407 7.462 27.407 14.339C301.97 271.003 269.31 274.367 250.013 274.367z" fill="#bf6b34" data-fill-palette-color="accent"></path></g></g><g fill="#bf6b34" data-fill-palette-color="accent"><g fill="#bf6b34" data-fill-palette-color="accent"><path d="M250.013 290.354c-19.297 0-51.956-3.363-51.956-15.986 0-2.209 1.787-3.996 3.996-3.996s3.997 1.787 3.997 3.996c1.37 2.686 17.29 7.994 43.963 7.994 26.673 0 42.597-5.309 44.009-8.282 0-2.21 1.765-3.849 3.974-3.849s3.974 1.928 3.974 4.137C301.97 286.99 269.31 290.354 250.013 290.354z" fill="#bf6b34" data-fill-palette-color="accent"></path></g></g><g fill="#bf6b34" data-fill-palette-color="accent"><g fill="#bf6b34" data-fill-palette-color="accent"><path d="M202.053 278.364c-2.209 0-3.996-1.788-3.996-3.997v-15.982c0-2.209 1.787-3.996 3.996-3.996s3.997 1.787 3.997 3.996v15.982C206.05 276.576 204.262 278.364 202.053 278.364z" fill="#bf6b34" data-fill-palette-color="accent"></path></g></g><g fill="#bf6b34" data-fill-palette-color="accent"><g fill="#bf6b34" data-fill-palette-color="accent"><path d="M297.973 278.364c-2.209 0-3.997-1.788-3.997-3.997v-15.982c0-2.209 1.788-3.996 3.997-3.996s3.997 1.787 3.997 3.996v15.982C301.97 276.576 300.182 278.364 297.973 278.364z" fill="#bf6b34" data-fill-palette-color="accent"></path></g></g><g fill="#bf6b34" data-fill-palette-color="accent"><g fill="#bf6b34" data-fill-palette-color="accent"><path d="M258.007 256.004c-2.209 0-3.998-1.787-3.998-3.996v-23.98c0-2.209 1.788-3.997 3.998-3.997 2.209 0 3.996 1.788 3.996 3.997v23.98C262.003 254.217 260.216 256.004 258.007 256.004z" fill="#bf6b34" data-fill-palette-color="accent"></path></g></g><g fill="#bf6b34" data-fill-palette-color="accent"><g fill="#bf6b34" data-fill-palette-color="accent"><path d="M242.02 256.004c-2.209 0-3.997-1.787-3.997-3.996v-23.98c0-2.209 1.788-3.997 3.997-3.997s3.996 1.788 3.996 3.997v23.98C246.016 254.217 244.229 256.004 242.02 256.004z" fill="#bf6b34" data-fill-palette-color="accent"></path></g></g><g fill="#bf6b34" data-fill-palette-color="accent"><g fill="#bf6b34" data-fill-palette-color="accent"><path d="M258.007 120.119c-2.209 0-3.998-1.787-3.998-3.996V4.218c0-2.209 1.788-3.997 3.998-3.997 2.209 0 3.996 1.788 3.996 3.997v111.905C262.003 118.332 260.216 120.119 258.007 120.119z" fill="#bf6b34" data-fill-palette-color="accent"></path></g></g><g fill="#bf6b34" data-fill-palette-color="accent"><g fill="#bf6b34" data-fill-palette-color="accent"><path d="M242.02 120.119c-2.209 0-3.997-1.787-3.997-3.996V4.218c0-2.209 1.788-3.997 3.997-3.997s3.996 1.788 3.996 3.997v111.905C246.016 118.332 244.229 120.119 242.02 120.119z" fill="#bf6b34" data-fill-palette-color="accent"></path></g></g></g><g fill="#bf6b34" data-fill-palette-color="accent"><g fill="#bf6b34" data-fill-palette-color="accent"><g fill="#bf6b34" data-fill-palette-color="accent"><path d="M98.125 56.174c-2.209 0-3.996-1.788-3.996-3.997V20.165c0-2.209 1.787-3.997 3.996-3.997s3.997 1.788 3.997 3.997v32.012C102.123 54.386 100.334 56.174 98.125 56.174z" fill="#bf6b34" data-fill-palette-color="accent"></path></g></g><g fill="#bf6b34" data-fill-palette-color="accent"><g fill="#bf6b34" data-fill-palette-color="accent"><path d="M114.113 56.174c-2.21 0-3.997-1.788-3.997-3.997V20.165c0-2.209 1.787-3.997 3.997-3.997 2.209 0 3.996 1.788 3.996 3.997v32.012C118.109 54.386 116.322 56.174 114.113 56.174z" fill="#bf6b34" data-fill-palette-color="accent"></path></g></g><g fill="#bf6b34" data-fill-palette-color="accent"><g fill="#bf6b34" data-fill-palette-color="accent"><path d="M98.122 24.162c-0.601 0-1.214-0.133-1.787-0.421-1.971-0.992-2.771-3.396-1.78-5.363l7.994-15.948c0.983-1.982 3.396-2.778 5.362-1.787 1.971 0.991 2.771 3.396 1.779 5.362l-7.993 15.947C100.999 23.357 99.585 24.162 98.122 24.162z" fill="#bf6b34" data-fill-palette-color="accent"></path></g></g><g fill="#bf6b34" data-fill-palette-color="accent"><g fill="#bf6b34" data-fill-palette-color="accent"><path d="M114.117 24.162c-1.464 0-2.877-0.804-3.575-2.209l-7.993-15.947c-0.992-1.967-0.191-4.371 1.779-5.362 1.971-0.983 4.379-0.188 5.362 1.787l7.993 15.948c0.992 1.967 0.191 4.371-1.779 5.363C115.33 24.029 114.717 24.162 114.117 24.162z" fill="#bf6b34" data-fill-palette-color="accent"></path></g></g><g fill="#bf6b34" data-fill-palette-color="accent"><g fill="#bf6b34" data-fill-palette-color="accent"><path d="M114.113 511.783H98.125c-2.209 0-3.996-1.787-3.996-3.996s1.787-3.996 3.996-3.996h15.987c2.209 0 3.996 1.787 3.996 3.996S116.322 511.783 114.113 511.783z" fill="#bf6b34" data-fill-palette-color="accent"></path></g></g><g fill="#bf6b34" data-fill-palette-color="accent"><g fill="#bf6b34" data-fill-palette-color="accent"><path d="M114.113 439.845H98.125c-2.209 0-3.996-1.788-3.996-3.997s1.787-3.996 3.996-3.996h15.987c2.209 0 3.996 1.787 3.996 3.996S116.322 439.845 114.113 439.845z" fill="#bf6b34" data-fill-palette-color="accent"></path></g></g><g fill="#bf6b34" data-fill-palette-color="accent"><g fill="#bf6b34" data-fill-palette-color="accent"><path d="M114.113 463.824H98.125c-2.209 0-3.996-1.787-3.996-3.996s1.787-3.997 3.996-3.997h15.987c2.209 0 3.996 1.788 3.996 3.997S116.322 463.824 114.113 463.824z" fill="#bf6b34" data-fill-palette-color="accent"></path></g></g><g fill="#bf6b34" data-fill-palette-color="accent"><g fill="#bf6b34" data-fill-palette-color="accent"><path d="M114.113 487.804H98.125c-2.209 0-3.996-1.787-3.996-3.996s1.787-3.997 3.996-3.997h15.987c2.209 0 3.996 1.788 3.996 3.997S116.322 487.804 114.113 487.804z" fill="#bf6b34" data-fill-palette-color="accent"></path></g></g><g fill="#bf6b34" data-fill-palette-color="accent"><g fill="#bf6b34" data-fill-palette-color="accent"><g fill="#bf6b34" data-fill-palette-color="accent"><path d="M90.125 303.968h31.974c11.018 0 19.982 8.961 19.982 19.982v31.973c0 11.022-8.965 19.983-19.982 19.983H90.125c-11.018 0-19.982-8.961-19.982-19.983V323.95C70.142 312.929 79.107 303.968 90.125 303.968zM122.098 367.913c6.611 0 11.989-5.378 11.989-11.99V323.95c0-6.611-5.378-11.99-11.989-11.99H90.125c-6.611 0-11.989 5.379-11.989 11.99v31.973c0 6.612 5.378 11.99 11.989 11.99H122.098z" fill="#bf6b34" data-fill-palette-color="accent"></path></g></g><g fill="#bf6b34" data-fill-palette-color="accent"><g fill="#bf6b34" data-fill-palette-color="accent"><path d="M74.138 335.94c2.209 0 3.997 1.787 3.997 3.996v31.973c0 6.612 5.378 11.99 11.989 11.99h31.974c6.611 0 11.989-5.378 11.989-11.99v-31.973c0-2.209 1.788-3.996 3.997-3.996s3.996 1.787 3.996 3.996v31.973c0 11.022-8.965 19.983-19.982 19.983H90.125c-11.018 0-19.982-8.961-19.982-19.983v-31.973C70.142 337.728 71.929 335.94 74.138 335.94z" fill="#bf6b34" data-fill-palette-color="accent"></path></g></g></g><g fill="#bf6b34" data-fill-palette-color="accent"><g fill="#bf6b34" data-fill-palette-color="accent"><g fill="#bf6b34" data-fill-palette-color="accent"><path d="M90.125 176.064h31.974c11.018 0 19.982 8.962 19.982 19.983v31.973c0 11.022-8.965 19.983-19.982 19.983H90.125c-11.018 0-19.982-8.961-19.982-19.983v-31.973C70.142 185.026 79.107 176.064 90.125 176.064zM122.098 240.011c6.611 0 11.989-5.378 11.989-11.99v-31.973c0-6.611-5.378-11.989-11.989-11.989H90.125c-6.611 0-11.989 5.378-11.989 11.989v31.973c0 6.612 5.378 11.99 11.989 11.99H122.098z" fill="#bf6b34" data-fill-palette-color="accent"></path></g></g><g fill="#bf6b34" data-fill-palette-color="accent"><g fill="#bf6b34" data-fill-palette-color="accent"><path d="M74.138 208.038c2.209 0 3.997 1.787 3.997 3.997v31.973c0 6.611 5.378 11.989 11.989 11.989h31.974c6.611 0 11.989-5.378 11.989-11.989v-31.973c0-2.209 1.788-3.997 3.997-3.997s3.996 1.787 3.996 3.997v31.973c0 11.021-8.965 19.982-19.982 19.982H90.125c-11.018 0-19.982-8.961-19.982-19.982v-31.973C70.142 209.825 71.929 208.038 74.138 208.038z" fill="#bf6b34" data-fill-palette-color="accent"></path></g></g></g><g fill="#bf6b34" data-fill-palette-color="accent"><g fill="#bf6b34" data-fill-palette-color="accent"><path d="M98.125 168.079c-2.209 0-3.996-1.788-3.996-3.997v-15.986c0-2.209 1.787-3.997 3.996-3.997s3.997 1.788 3.997 3.997v15.986C102.123 166.291 100.334 168.079 98.125 168.079z" fill="#bf6b34" data-fill-palette-color="accent"></path></g></g><g fill="#bf6b34" data-fill-palette-color="accent"><g fill="#bf6b34" data-fill-palette-color="accent"><path d="M114.113 168.079c-2.21 0-3.997-1.788-3.997-3.997v-15.986c0-2.209 1.787-3.997 3.997-3.997 2.209 0 3.996 1.788 3.996 3.997v15.986C118.109 166.291 116.322 168.079 114.113 168.079z" fill="#bf6b34" data-fill-palette-color="accent"></path></g></g><g fill="#bf6b34" data-fill-palette-color="accent"><g fill="#bf6b34" data-fill-palette-color="accent"><path d="M98.125 295.967c-2.209 0-3.996-1.788-3.996-3.997v-15.986c0-2.209 1.787-3.997 3.996-3.997s3.997 1.788 3.997 3.997v15.986C102.123 294.179 100.334 295.967 98.125 295.967z" fill="#bf6b34" data-fill-palette-color="accent"></path></g></g><g fill="#bf6b34" data-fill-palette-color="accent"><g fill="#bf6b34" data-fill-palette-color="accent"><path d="M114.113 295.967c-2.21 0-3.997-1.788-3.997-3.997v-15.986c0-2.209 1.787-3.997 3.997-3.997 2.209 0 3.996 1.788 3.996 3.997v15.986C118.109 294.179 116.322 295.967 114.113 295.967z" fill="#bf6b34" data-fill-palette-color="accent"></path></g></g><g fill="#bf6b34" data-fill-palette-color="accent"><g fill="#bf6b34" data-fill-palette-color="accent"><path d="M98.125 511.783c-2.209 0-3.996-1.787-3.996-3.996V403.875c0-2.209 1.787-3.996 3.996-3.996s3.997 1.787 3.997 3.996v103.912C102.123 509.996 100.334 511.783 98.125 511.783z" fill="#bf6b34" data-fill-palette-color="accent"></path></g></g><g fill="#bf6b34" data-fill-palette-color="accent"><g fill="#bf6b34" data-fill-palette-color="accent"><path d="M114.113 511.783c-2.21 0-3.997-1.787-3.997-3.996V403.875c0-2.209 1.787-3.996 3.997-3.996 2.209 0 3.996 1.787 3.996 3.996v103.912C118.109 509.996 116.322 511.783 114.113 511.783z" fill="#bf6b34" data-fill-palette-color="accent"></path></g></g><g fill="#bf6b34" data-fill-palette-color="accent"><g fill="#bf6b34" data-fill-palette-color="accent"><path d="M106.111 136.105c-19.83 0-35.961-16.135-35.961-35.961s16.131-35.961 35.961-35.961c19.835 0 35.97 16.135 35.97 35.961S125.946 136.105 106.111 136.105zM106.111 72.176c-15.42 0-27.968 12.544-27.968 27.968s12.548 27.968 27.968 27.968c15.425 0 27.977-12.544 27.977-27.968S121.536 72.176 106.111 72.176z" fill="#bf6b34" data-fill-palette-color="accent"></path></g></g><g fill="#bf6b34" data-fill-palette-color="accent"><g fill="#bf6b34" data-fill-palette-color="accent"><path d="M106.119 120.119c-2.209 0-3.996-1.787-3.996-3.996 0-2.209 1.787-3.997 3.996-3.997 6.612 0 11.99-5.378 11.99-11.99 0-2.209 1.787-3.997 3.997-3.997 2.209 0 3.996 1.788 3.996 3.997C126.102 111.158 117.137 120.119 106.119 120.119z" fill="#bf6b34" data-fill-palette-color="accent"></path></g></g><g fill="#bf6b34" data-fill-palette-color="accent"><g fill="#bf6b34" data-fill-palette-color="accent"><path d="M81.523 83.549c-1.022 0-2.045-0.391-2.826-1.171L67.324 71.005c-1.562-1.562-1.562-4.091 0-5.651 1.562-1.562 4.091-1.562 5.651 0l11.373 11.373c1.562 1.561 1.562 4.09 0 5.651C83.568 83.158 82.545 83.549 81.523 83.549z" fill="#bf6b34" data-fill-palette-color="accent"></path></g></g></g><g fill="#bf6b34" data-fill-palette-color="accent"><g fill="#bf6b34" data-fill-palette-color="accent"><g fill="#bf6b34" data-fill-palette-color="accent"><path d="M385.898 56.174c-2.21 0-3.997-1.788-3.997-3.997V20.165c0-2.209 1.787-3.997 3.997-3.997 2.209 0 3.996 1.788 3.996 3.997v32.012C389.895 54.386 388.107 56.174 385.898 56.174z" fill="#bf6b34" data-fill-palette-color="accent"></path></g></g><g fill="#bf6b34" data-fill-palette-color="accent"><g fill="#bf6b34" data-fill-palette-color="accent"><path d="M401.885 56.174c-2.209 0-3.997-1.788-3.997-3.997V20.165c0-2.209 1.788-3.997 3.997-3.997s3.996 1.788 3.996 3.997v32.012C405.881 54.386 404.094 56.174 401.885 56.174z" fill="#bf6b34" data-fill-palette-color="accent"></path></g></g><g fill="#bf6b34" data-fill-palette-color="accent"><g fill="#bf6b34" data-fill-palette-color="accent"><path d="M385.898 24.162c-0.609 0-1.218-0.133-1.788-0.421-1.975-0.992-2.771-3.396-1.787-5.363l7.993-15.948c0.991-1.998 3.419-2.771 5.362-1.787 1.975 0.991 2.771 3.396 1.788 5.362l-7.993 15.947C388.771 23.357 387.358 24.162 385.898 24.162z" fill="#bf6b34" data-fill-palette-color="accent"></path></g></g><g fill="#bf6b34" data-fill-palette-color="accent"><g fill="#bf6b34" data-fill-palette-color="accent"><path d="M401.885 24.162c-1.46 0-2.873-0.804-3.575-2.209l-7.993-15.947c-0.983-1.967-0.188-4.371 1.787-5.362 1.937-0.983 4.372-0.211 5.363 1.787l7.993 15.948c0.983 1.967 0.188 4.371-1.788 5.363C403.103 24.029 402.493 24.162 401.885 24.162z" fill="#bf6b34" data-fill-palette-color="accent"></path></g></g><g fill="#bf6b34" data-fill-palette-color="accent"><g fill="#bf6b34" data-fill-palette-color="accent"><path d="M401.885 511.783h-15.986c-2.21 0-3.997-1.787-3.997-3.996s1.787-3.996 3.997-3.996h15.986c2.209 0 3.996 1.787 3.996 3.996S404.094 511.783 401.885 511.783z" fill="#bf6b34" data-fill-palette-color="accent"></path></g></g><g fill="#bf6b34" data-fill-palette-color="accent"><g fill="#bf6b34" data-fill-palette-color="accent"><path d="M401.885 439.845h-15.986c-2.21 0-3.997-1.788-3.997-3.997s1.787-3.996 3.997-3.996h15.986c2.209 0 3.996 1.787 3.996 3.996S404.094 439.845 401.885 439.845z" fill="#bf6b34" data-fill-palette-color="accent"></path></g></g><g fill="#bf6b34" data-fill-palette-color="accent"><g fill="#bf6b34" data-fill-palette-color="accent"><path d="M401.885 463.824h-15.986c-2.21 0-3.997-1.787-3.997-3.996s1.787-3.997 3.997-3.997h15.986c2.209 0 3.996 1.788 3.996 3.997S404.094 463.824 401.885 463.824z" fill="#bf6b34" data-fill-palette-color="accent"></path></g></g><g fill="#bf6b34" data-fill-palette-color="accent"><g fill="#bf6b34" data-fill-palette-color="accent"><path d="M401.885 487.804h-15.986c-2.21 0-3.997-1.787-3.997-3.996s1.787-3.997 3.997-3.997h15.986c2.209 0 3.996 1.788 3.996 3.997S404.094 487.804 401.885 487.804z" fill="#bf6b34" data-fill-palette-color="accent"></path></g></g><g fill="#bf6b34" data-fill-palette-color="accent"><g fill="#bf6b34" data-fill-palette-color="accent"><path d="M409.878 136.105h-31.973c-11.022 0-19.983-8.961-19.983-19.982V84.149c0-11.021 8.961-19.982 19.983-19.982h31.973c11.021 0 19.982 8.961 19.982 19.982v31.974C429.86 127.145 420.899 136.105 409.878 136.105zM377.905 72.16c-6.612 0-11.99 5.378-11.99 11.989v31.974c0 6.611 5.378 11.989 11.99 11.989h31.973c6.611 0 11.99-5.378 11.99-11.989V84.149c0-6.611-5.379-11.989-11.99-11.989H377.905z" fill="#bf6b34" data-fill-palette-color="accent"></path></g></g><g fill="#bf6b34" data-fill-palette-color="accent"><g fill="#bf6b34" data-fill-palette-color="accent"><path d="M409.878 152.092h-31.973c-11.022 0-19.983-8.961-19.983-19.983v-31.973c0-2.209 1.788-3.997 3.997-3.997s3.996 1.788 3.996 3.997v31.973c0 6.611 5.378 11.99 11.99 11.99h31.973c6.611 0 11.99-5.378 11.99-11.99v-31.973c0-2.209 1.787-3.997 3.996-3.997s3.996 1.788 3.996 3.997v31.973C429.86 143.131 420.899 152.092 409.878 152.092z" fill="#bf6b34" data-fill-palette-color="accent"></path></g></g><g fill="#bf6b34" data-fill-palette-color="accent"><g fill="#bf6b34" data-fill-palette-color="accent"><path d="M385.898 359.912c-2.21 0-3.997-1.787-3.997-3.996V339.93c0-2.209 1.787-3.997 3.997-3.997 2.209 0 3.996 1.788 3.996 3.997v15.986C389.895 358.125 388.107 359.912 385.898 359.912z" fill="#bf6b34" data-fill-palette-color="accent"></path></g></g><g fill="#bf6b34" data-fill-palette-color="accent"><g fill="#bf6b34" data-fill-palette-color="accent"><path d="M401.885 359.912c-2.209 0-3.997-1.787-3.997-3.996V339.93c0-2.209 1.788-3.997 3.997-3.997s3.996 1.788 3.996 3.997v15.986C405.881 358.125 404.094 359.912 401.885 359.912z" fill="#bf6b34" data-fill-palette-color="accent"></path></g></g><g fill="#bf6b34" data-fill-palette-color="accent"><g fill="#bf6b34" data-fill-palette-color="accent"><path d="M385.898 248.011c-2.21 0-3.997-1.787-3.997-3.996v-15.987c0-2.209 1.787-3.997 3.997-3.997 2.209 0 3.996 1.788 3.996 3.997v15.987C389.895 246.224 388.107 248.011 385.898 248.011z" fill="#bf6b34" data-fill-palette-color="accent"></path></g></g><g fill="#bf6b34" data-fill-palette-color="accent"><g fill="#bf6b34" data-fill-palette-color="accent"><path d="M401.885 248.011c-2.209 0-3.997-1.787-3.997-3.996v-15.987c0-2.209 1.788-3.997 3.997-3.997s3.996 1.788 3.996 3.997v15.987C405.881 246.224 404.094 248.011 401.885 248.011z" fill="#bf6b34" data-fill-palette-color="accent"></path></g></g><g fill="#bf6b34" data-fill-palette-color="accent"><g fill="#bf6b34" data-fill-palette-color="accent"><path d="M385.898 184.058c-2.21 0-3.997-1.788-3.997-3.997v-15.986c0-2.209 1.787-3.997 3.997-3.997 2.209 0 3.996 1.788 3.996 3.997v15.986C389.895 182.27 388.107 184.058 385.898 184.058z" fill="#bf6b34" data-fill-palette-color="accent"></path></g></g><g fill="#bf6b34" data-fill-palette-color="accent"><g fill="#bf6b34" data-fill-palette-color="accent"><path d="M401.885 184.058c-2.209 0-3.997-1.788-3.997-3.997v-15.986c0-2.209 1.788-3.997 3.997-3.997s3.996 1.788 3.996 3.997v15.986C405.881 182.27 404.094 184.058 401.885 184.058z" fill="#bf6b34" data-fill-palette-color="accent"></path></g></g><g fill="#bf6b34" data-fill-palette-color="accent"><g fill="#bf6b34" data-fill-palette-color="accent"><g fill="#bf6b34" data-fill-palette-color="accent"><path d="M393.892 375.898c-19.297 0-51.956-3.364-51.956-15.986 0-6.877 9.219-11.701 27.406-14.339 2.061-0.297 4.208 1.194 4.527 3.388 0.312 2.178-1.202 4.207-3.388 4.527-15.253 2.209-20.107 5.675-20.6 6.713 1.413 2.396 17.337 7.704 44.01 7.704s42.597-5.308 44.01-8.282c-0.492-0.46-5.348-3.926-20.6-6.135-2.187-0.32-3.7-2.35-3.389-4.527 0.32-2.193 2.443-3.685 4.527-3.388 18.188 2.638 27.407 7.462 27.407 14.339C445.848 372.534 413.188 375.898 393.892 375.898z" fill="#bf6b34" data-fill-palette-color="accent"></path></g></g><g fill="#bf6b34" data-fill-palette-color="accent"><g fill="#bf6b34" data-fill-palette-color="accent"><path d="M393.892 391.885c-19.297 0-51.956-3.363-51.956-15.986 0-2.209 1.787-3.996 3.996-3.996 2.21 0 3.997 1.787 3.997 3.996 1.366 2.686 17.29 7.994 43.963 7.994s42.597-5.309 44.01-8.283c0-2.209 1.764-3.848 3.973-3.848s3.974 1.928 3.974 4.137C445.848 388.521 413.188 391.885 393.892 391.885z" fill="#bf6b34" data-fill-palette-color="accent"></path></g></g><g fill="#bf6b34" data-fill-palette-color="accent"><g fill="#bf6b34" data-fill-palette-color="accent"><path d="M345.932 379.896c-2.209 0-3.996-1.788-3.996-3.997v-15.986c0-2.209 1.787-3.996 3.996-3.996 2.21 0 3.997 1.787 3.997 3.996v15.986C349.929 378.107 348.142 379.896 345.932 379.896z" fill="#bf6b34" data-fill-palette-color="accent"></path></g></g><g fill="#bf6b34" data-fill-palette-color="accent"><g fill="#bf6b34" data-fill-palette-color="accent"><path d="M441.851 379.896c-2.209 0-3.996-1.788-3.996-3.997v-15.986c0-2.209 1.787-3.996 3.996-3.996s3.997 1.787 3.997 3.996v15.986C445.848 378.107 444.06 379.896 441.851 379.896z" fill="#bf6b34" data-fill-palette-color="accent"></path></g></g></g><g fill="#bf6b34" data-fill-palette-color="accent"><g fill="#bf6b34" data-fill-palette-color="accent"><g fill="#bf6b34" data-fill-palette-color="accent"><path d="M393.892 200.052c-19.297 0-51.956-3.364-51.956-15.986 0-6.877 9.219-11.701 27.406-14.34 2.061-0.296 4.208 1.194 4.527 3.388 0.312 2.178-1.202 4.208-3.388 4.527-15.253 2.209-20.107 5.675-20.6 6.713 1.413 2.396 17.337 7.705 44.01 7.705s42.597-5.308 44.01-8.282c-0.492-0.461-5.348-3.926-20.6-6.136-2.187-0.32-3.7-2.35-3.389-4.527 0.32-2.193 2.443-3.684 4.527-3.388 18.188 2.639 27.407 7.463 27.407 14.34C445.848 196.688 413.188 200.052 393.892 200.052z" fill="#bf6b34" data-fill-palette-color="accent"></path></g></g><g fill="#bf6b34" data-fill-palette-color="accent"><g fill="#bf6b34" data-fill-palette-color="accent"><path d="M393.892 216.038c-19.297 0-51.956-3.364-51.956-15.986 0-2.209 1.787-3.997 3.996-3.997 2.21 0 3.997 1.788 3.997 3.997 1.366 2.685 17.29 7.993 43.963 7.993s42.597-5.308 44.01-8.282c0-2.209 1.764-3.848 3.973-3.848s3.974 1.928 3.974 4.137C445.848 212.674 413.188 216.038 393.892 216.038z" fill="#bf6b34" data-fill-palette-color="accent"></path></g></g><g fill="#bf6b34" data-fill-palette-color="accent"><g fill="#bf6b34" data-fill-palette-color="accent"><path d="M345.932 204.048c-2.209 0-3.996-1.788-3.996-3.997v-15.986c0-2.209 1.787-3.997 3.996-3.997 2.21 0 3.997 1.788 3.997 3.997v15.986C349.929 202.261 348.142 204.048 345.932 204.048z" fill="#bf6b34" data-fill-palette-color="accent"></path></g></g><g fill="#bf6b34" data-fill-palette-color="accent"><g fill="#bf6b34" data-fill-palette-color="accent"><path d="M441.851 204.048c-2.209 0-3.996-1.788-3.996-3.997v-15.986c0-2.209 1.787-3.997 3.996-3.997s3.997 1.788 3.997 3.997v15.986C445.848 202.261 444.06 204.048 441.851 204.048z" fill="#bf6b34" data-fill-palette-color="accent"></path></g></g></g><g fill="#bf6b34" data-fill-palette-color="accent"><g fill="#bf6b34" data-fill-palette-color="accent"><path d="M385.898 511.783c-2.21 0-3.997-1.787-3.997-3.996V403.875c0-2.209 1.787-3.996 3.997-3.996 2.209 0 3.996 1.787 3.996 3.996v103.912C389.895 509.996 388.107 511.783 385.898 511.783z" fill="#bf6b34" data-fill-palette-color="accent"></path></g></g><g fill="#bf6b34" data-fill-palette-color="accent"><g fill="#bf6b34" data-fill-palette-color="accent"><path d="M401.885 511.783c-2.209 0-3.997-1.787-3.997-3.996V403.875c0-2.209 1.788-3.996 3.997-3.996s3.996 1.787 3.996 3.996v103.912C405.881 509.996 404.094 511.783 401.885 511.783z" fill="#bf6b34" data-fill-palette-color="accent"></path></g></g><g fill="#bf6b34" data-fill-palette-color="accent"><g fill="#bf6b34" data-fill-palette-color="accent"><g fill="#bf6b34" data-fill-palette-color="accent"><path d="M393.884 327.932c-19.827 0-35.962-16.135-35.962-35.962s16.135-35.958 35.962-35.958c19.834 0 35.969 16.131 35.969 35.958S413.718 327.932 393.884 327.932zM393.884 264.002c-15.425 0-27.969 12.543-27.969 27.968s12.544 27.969 27.969 27.969c15.424 0 27.977-12.544 27.977-27.969S409.308 264.002 393.884 264.002z" fill="#bf6b34" data-fill-palette-color="accent"></path></g></g><g fill="#bf6b34" data-fill-palette-color="accent"><g fill="#bf6b34" data-fill-palette-color="accent"><path d="M377.897 295.975c-2.209 0-3.997-1.788-3.997-3.997 0-11.021 8.961-19.983 19.983-19.983 2.209 0 3.996 1.788 3.996 3.997s-1.787 3.997-3.996 3.997c-6.611 0-11.99 5.378-11.99 11.989C381.894 294.187 380.106 295.975 377.897 295.975z" fill="#bf6b34" data-fill-palette-color="accent"></path></g></g><g fill="#bf6b34" data-fill-palette-color="accent"><g fill="#bf6b34" data-fill-palette-color="accent"><path d="M418.472 275.375c-1.022 0-2.045-0.391-2.825-1.172-1.562-1.561-1.562-4.09 0-5.65l11.381-11.37c1.562-1.561 4.091-1.561 5.651 0 1.562 1.562 1.562 4.091 0 5.651l-11.381 11.369C420.518 274.984 419.495 275.375 418.472 275.375z" fill="#bf6b34" data-fill-palette-color="accent"></path></g></g></g></g></g></svg></g></svg></g></svg></g></svg></g></svg></g><g><path d="M0 123.6c0-68.262 55.338-123.6 123.6-123.6 51.396 0 95.465 31.37 114.104 76.007l-1.665 0c-18.549-43.769-61.909-74.472-112.439-74.472-67.415 0-122.065 54.651-122.065 122.065 0 67.415 54.651 122.065 122.065 122.065 50.531 0 93.89-30.704 112.439-74.472l1.665 0c-18.64 44.637-62.709 76.007-114.104 76.007-68.262 0-123.6-55.338-123.6-123.6z" fill="#bf6b34" stroke="transparent" data-fill-palette-color="tertiary"></path></g></svg></g><defs></defs></svg><rect width="395.52" height="247.2" fill="none" stroke="none" visibility="hidden"></rect></g></svg></g></svg>